<svg id="Capa_1" enable-background="new 0 0 512 512" height="35" viewBox="0 0 512 512" width="35" xmlns="http://www.w3.org/2000/svg" fill="#fff"><g><path fill="#fff" d="m125.565 355.71h-.12c-8.254 0-14.971 6.73-14.971 15v141.29h30.061v-141.29c.001-8.27-6.716-15-14.97-15z"/><path d="m255.561 335.41h-.12c-8.254 0-14.971 6.73-14.971 15v161.59h30.061v-161.59c.001-8.27-6.716-15-14.97-15z"/><path d="m386.555 355.71h-.12c-8.254 0-14.971 6.73-14.971 15v141.29h30.061v-141.29c.001-8.27-6.716-15-14.97-15z"/><ellipse cx="256" cy="193.54" rx="15.031" ry="15"/><path d="m341.962 264.2h170.038v-35.85c0-6.25-3.872-11.85-9.721-14.05l-231.308-86.828v-37.472h82.219c8.264 0 14.971-6.72 14.971-15v-50c0-8.28-6.707-15-14.971-15h-83.09c-2.059-5.82-7.588-10-14.1-10-8.264 0-14.971 6.72-14.971 15v112.469l-230.989 86.711-.329.13c-5.839 2.19-9.711 7.79-9.711 14.04v35.85h170.038c9.223 0 16.697 7.49 16.697 16.73 0 9.23-7.475 16.72-16.697 16.72h-149.019v199.35c0 8.28 6.707 15 14.971 15h44.543v-141.29c0-24.82 20.141-45 44.912-45h.12c24.762 0 44.912 20.18 44.912 45v141.29h40.052v-161.59c0-24.81 20.141-45 44.912-45h.12c24.772 0 44.912 20.19 44.912 45v161.59h41.05v-141.29c0-24.82 20.151-45 44.912-45h.12c24.772 0 44.912 20.18 44.912 45v141.29h44.543c8.264 0 14.971-6.72 14.971-15v-199.35h-149.019c-9.244 0-16.697-7.515-16.697-16.72 0-9.24 7.475-16.73 16.697-16.73zm-85.962-25.66c-24.802 0-44.972-20.19-44.972-45 0-24.82 20.171-45 44.972-45s44.972 20.18 44.972 45c0 24.81-20.17 45-44.972 45z"/></g></svg>