<svg height="30" viewBox="0 0 512 512" width="35" xmlns="http://www.w3.org/2000/svg" ><path  fill="#fff" d="m456 184a8 8 0 0 0 8-8v-24h32a8 8 0 0 0 8-8v-48a8 8 0 0 0 -5.94-7.73l-240-64a7.994 7.994 0 0 0 -4.12 0l-240 64a8 8 0 0 0 -5.94 7.73v48a8 8 0 0 0 8 8h32v24a8 8 0 0 0 8 8h24v208h-24a8 8 0 0 0 -8 8v24h-32a8 8 0 0 0 -8 8v48a8 8 0 0 0 8 8h480a8 8 0 0 0 8-8v-48a8 8 0 0 0 -8-8h-32v-24a8 8 0 0 0 -8-8h-24v-208zm-432-48v-33.85l232-61.87 232 61.87v33.85zm464 304v32h-464v-32zm-40-32v16h-384v-16zm-352-16v-208h32v208zm48 0v-208h80v208zm96 0v-208h32v208zm48 0v-208h80v208zm96 0v-208h32v208zm-320-224v-16h384v16z"/></svg>